<svg width="118" height="32" viewBox="0 0 118 32" fill="none" xmlns="http://www.w3.org/2000/svg">
<path d="M3.86173 18.2927L8.38471 18.6707C5.03085 17.7377 4.10971 13.4155 6.80225 11.1953L12.1873 6.76678V0L3.48382 7.14468C2.29107 8.12486 1.36993 9.36484 0.779464 10.7465C0.696799 10.9473 0.614142 11.1363 0.566904 11.3488C-0.165278 14.0178 1.20461 17.5605 3.86173 18.2927Z" fill="url(#paint0_linear)"/>
<path d="M20.4304 13.9705L16.0018 13.2501C19.3557 14.1831 20.2768 18.5053 17.5843 20.7255L12.1992 25.154V31.9208L20.9027 24.7761C22.0955 23.7959 23.0166 22.5559 23.6071 21.1742C23.6897 20.9853 23.7606 20.7845 23.8197 20.5838C24.54 17.9148 23.0875 14.7027 20.4304 13.9705Z" fill="url(#paint1_linear)"/>
<path d="M24.3747 17.3952C24.3747 13.1084 21.505 9.34123 17.3717 8.20753L12.1992 6.79041V12.2109L16.0018 13.262L20.3241 14.4547C22.9812 15.1869 24.54 17.9267 23.8078 20.5838C23.7488 20.7845 23.6779 20.9853 23.6071 21.1742C24.1031 19.9815 24.3747 18.7061 24.3747 17.3952Z" fill="white"/>
<path d="M69.1089 22.0365C68.235 22.0365 67.3965 22.0365 66.5108 22.0365C66.5108 21.4815 66.5108 20.3005 66.5108 20.3005C66.5108 20.3005 66.4754 20.3241 66.4399 20.3596C66.4163 20.4068 66.3809 20.4541 66.3455 20.5013C65.259 21.8476 63.8064 22.4262 62.1295 22.3554C59.6023 22.2491 57.8191 20.95 56.8035 18.659C55.9178 16.6514 56.0359 14.6438 57.0633 12.6953C58.197 10.546 60.5353 9.31782 62.9444 9.57762C64.3261 9.73114 65.4834 10.298 66.3691 11.3844C66.3927 11.4081 66.4045 11.4317 66.4281 11.4435C66.4399 11.4553 66.4636 11.4553 66.5108 11.4907C66.5108 10.9475 66.5108 9.86104 66.5108 9.86104H69.1207C69.1089 9.86104 69.1089 17.9623 69.1089 22.0365ZM62.72 12.0576C60.5589 12.0222 58.8937 13.6518 58.8583 15.872C58.8229 18.1158 60.4172 19.8164 62.6137 19.8518C64.8221 19.8872 66.4754 18.2693 66.5226 16.0255C66.558 13.7699 64.952 12.093 62.72 12.0576Z" fill="white"/>
<path d="M111.634 9.54215C108.033 9.53034 105.21 12.3292 105.198 15.9192C105.186 19.5093 108.009 22.3553 111.587 22.3671C115.154 22.3789 117.988 19.5447 118 15.9783C118.011 12.3764 115.224 9.56577 111.634 9.54215ZM111.599 19.8045C109.485 19.8045 107.832 18.0921 107.832 15.931C107.844 13.7699 109.509 12.093 111.623 12.093C113.736 12.1048 115.378 13.7935 115.366 15.9547C115.366 18.1158 113.689 19.8163 111.599 19.8045Z" fill="white"/>
<path d="M74.8002 16.4506V22.0364H72.2021V4.99548H74.8002V15.2224L74.8593 15.1752L79.5004 9.86095H82.7007L77.3747 15.8247L82.8896 22.0246H79.7602L74.8711 16.486L74.8002 16.4506Z" fill="white"/>
<path d="M95.0543 22.0366C94.1922 22.0366 93.3419 22.0366 92.4798 22.0366C92.4798 21.5524 92.4798 21.0682 92.4798 20.5486C92.4208 20.5958 92.3854 20.6195 92.3617 20.6431C91.6532 21.6705 90.6376 22.1783 89.433 22.3318C88.3348 22.4617 87.2601 22.32 86.2799 21.765C85.3942 21.2572 84.7919 20.5014 84.4258 19.5566C84.1542 18.8481 84.0479 18.1041 84.0361 17.3483C84.0361 14.6321 84.0361 9.87294 84.0361 9.87294H86.6696C86.6696 9.87294 86.6578 14.7148 86.6814 16.9586C86.6814 17.3483 86.7169 17.7498 86.8232 18.1277C87.1066 19.1787 87.8388 19.7338 88.8898 19.8755C89.7283 19.9818 90.5195 19.8755 91.2281 19.3795C91.9602 18.8599 92.2909 18.1041 92.3972 17.242C92.4444 16.8995 92.468 16.557 92.468 16.2028C92.4798 14.207 92.468 9.87294 92.468 9.87294H95.0543C95.0543 9.86113 95.0543 17.9624 95.0543 22.0366Z" fill="white"/>
<path d="M98.1484 9.86096H100.723V11.8567C100.723 11.8567 100.747 11.8331 100.77 11.8095C101.538 10.2861 102.813 9.66022 104.455 9.6366C104.455 10.5932 104.455 11.5261 104.455 12.459C104.006 12.4708 103.746 12.4945 103.392 12.5535C101.916 12.7779 100.9 13.8525 100.77 15.3523C100.747 15.6121 100.735 15.872 100.735 16.1318C100.735 17.974 100.735 22.0365 100.735 22.0365H98.1484V9.86096Z" fill="white"/>
<path d="M53.9922 12.9904C53.7206 11.7859 53.0829 10.8175 51.9964 10.1798C51.0753 9.63656 50.0715 9.49485 49.0205 9.56571C47.745 9.66019 46.6704 10.2389 45.891 11.2308C45.8673 11.2663 45.8319 11.2781 45.7493 11.3489C45.7493 10.2979 45.7493 4.99548 45.7493 4.99548H43.1748V22.0364H45.7729C45.7729 22.0364 45.7729 17.726 45.7729 15.7656C45.7729 15.4232 45.7847 15.0689 45.8319 14.7264C45.9854 13.5809 46.4814 12.6716 47.6033 12.2228C48.241 11.9748 48.9142 11.9512 49.5873 12.0811C50.5793 12.2701 51.2997 12.9786 51.4768 13.9824C51.5359 14.3367 51.5713 14.7146 51.5713 15.0807C51.5831 19.6273 51.5713 22.0364 51.5713 22.0364H54.193C54.193 22.0364 54.2048 16.9584 54.1812 14.5375C54.1812 14.0179 54.1103 13.4864 53.9922 12.9904Z" fill="white"/>
<path d="M38.6758 15.3287C37.92 15.0689 36.4674 14.7855 35.251 14.4194C33.6331 13.9352 33.8693 12.6834 34.4598 12.2346C35.2274 11.6205 37.4122 11.8685 39.9039 13.014L40.6597 10.7348C39.7268 10.2979 37.3767 9.54207 35.5345 9.61293C32.1097 9.74283 31.2122 12.0339 31.3421 13.5573C31.4248 14.5138 31.8263 15.8837 34.3417 16.6513C34.9086 16.8285 36.1249 17.0647 36.6918 17.2418C37.176 17.3953 38.7112 17.6906 38.475 18.8125C38.2506 19.9225 36.8335 19.9698 36.3257 19.9698C34.6133 19.9698 32.5349 18.9187 31.7791 18.3637C31.4484 19.3084 30.917 20.8673 30.917 20.8673C30.917 20.8673 33.4678 22.3671 36.5501 22.3671C39.7268 22.3671 41.1085 20.3713 41.1557 18.718C41.1912 17.7968 41.014 16.1553 38.6758 15.3287Z" fill="white"/>
<path d="M4.06243 17.4897C1.40532 16.7575 -0.153519 14.0177 0.578663 11.3606C0.63771 11.1599 0.696751 10.9709 0.779417 10.7701C0.271613 11.9511 0 13.2265 0 14.5374C0 18.8242 2.86969 22.5913 7.00297 23.725L12.1755 25.1422V19.7217L8.37286 18.6706L4.06243 17.4897Z" fill="white"/>
<defs>
<linearGradient id="paint0_linear" x1="3.47928" y1="15.9137" x2="12.0925" y2="4.70623" gradientUnits="userSpaceOnUse">
<stop offset="1.33195e-07" stop-color="white" stop-opacity="0.5"/>
<stop offset="1" stop-color="white"/>
</linearGradient>
<linearGradient id="paint1_linear" x1="20.7391" y1="16.215" x2="12.2543" y2="27.2553" gradientUnits="userSpaceOnUse">
<stop offset="1.33195e-07" stop-color="white" stop-opacity="0.5"/>
<stop offset="1" stop-color="white"/>
</linearGradient>
</defs>
</svg>
